<svg xmlns="http://www.w3.org/2000/svg" width="1200" height="720" viewBox="0 0 1200 720">
<rect width="1200" height="720" fill="#F7FAFC"/>
<text x="60" y="70" font-family="Arial" font-size="36" font-weight="700" fill="#122033">AEGIS OS V3.0 Architecture</text>
<g font-family="Arial" font-size="20" fill="#122033">
<rect x="60" y="130" width="230" height="90" rx="10" fill="#EAF4F7" stroke="#1C5F73"/><text x="92" y="183">Enterprise AI Systems</text>
<rect x="360" y="130" width="230" height="90" rx="10" fill="#E8EEF8" stroke="#314B8C"/><text x="428" y="183">AEGIS API Layer</text>
<rect x="660" y="130" width="230" height="90" rx="10" fill="#E7F6F2" stroke="#0F766E"/><text x="700" y="183">Governance Services</text>
<rect x="960" y="130" width="180" height="90" rx="10" fill="#FFF7E6" stroke="#B7791F"/><text x="1002" y="183">Evidence</text>
<rect x="210" y="330" width="220" height="90" rx="10" fill="#FFFFFF" stroke="#CBD5E1"/><text x="250" y="383">Next.js Frontend</text>
<rect x="490" y="330" width="220" height="90" rx="10" fill="#FFFFFF" stroke="#CBD5E1"/><text x="530" y="383">FastAPI Backend</text>
<rect x="770" y="330" width="220" height="90" rx="10" fill="#FFFFFF" stroke="#CBD5E1"/><text x="810" y="383">PostgreSQL Data</text>
<rect x="330" y="530" width="540" height="90" rx="10" fill="#122033"/><text x="415" y="584" fill="#FFFFFF">Identity - Policy - Risk - Audit - Trust</text>
</g>
<g stroke="#526071" stroke-width="4" marker-end="url(#arrow)"><defs><marker id="arrow" markerWidth="10" markerHeight="10" refX="8" refY="3" orient="auto"><path d="M0,0 L0,6 L9,3 z" fill="#526071"/></marker></defs><line x1="290" y1="175" x2="360" y2="175"/><line x1="590" y1="175" x2="660" y2="175"/><line x1="890" y1="175" x2="960" y2="175"/><line x1="600" y1="420" x2="600" y2="530"/></g>
</svg>
